<svg xmlns="http://www.w3.org/2000/svg" viewBox="0 0 810 100" fill="none" >
  <path d="M597.767 42.526C601.171 44.6483 604.313 47.0053 607.191 49.6026C610.072 52.1988 612.471 55.23 614.39 58.6905C616.31 62.1544 617.27 66.3509 617.27 71.2857C617.27 75.3563 616.572 79.0114 615.176 82.2578C613.778 85.503 611.859 88.2755 609.416 90.5672C606.973 92.8624 604.093 94.6161 600.776 95.8272C597.459 97.0383 593.882 97.645 590.042 97.645C587.859 97.645 585.939 97.5145 584.282 97.2558C582.623 96.9959 581.096 96.7132 579.701 96.4121C578.303 96.1088 576.93 95.8272 575.577 95.5673C574.224 95.3075 572.764 95.1781 571.192 95.1781H570.21C569.991 95.1781 569.663 95.2228 569.229 95.3075C569.314 94.9629 569.358 94.4638 569.358 93.8148V91.9317C569.358 90.4608 569.248 89.0104 569.032 87.5818C568.811 86.1532 568.704 84.6182 568.704 82.9721C568.704 81.761 568.812 80.4194 569.032 78.9473C569.248 77.4763 569.663 76.0912 570.275 74.792H570.929C570.84 75.3987 570.775 75.9607 570.733 76.4804C570.688 77.0001 570.669 77.5198 570.669 78.0384C570.669 80.7227 571.258 83.082 572.436 85.115C573.614 87.1503 575.163 88.8616 577.083 90.2444C579.003 91.6307 581.185 92.6689 583.629 93.3615C586.072 94.0552 588.603 94.4009 591.222 94.4009C593.492 94.4009 595.693 94.0552 597.833 93.3615C599.971 92.6689 601.87 91.5872 603.528 90.1151C605.184 88.6441 606.516 86.8263 607.52 84.6605C608.521 82.4993 609.026 79.9008 609.026 76.8708C609.026 72.5426 608.062 68.8647 606.146 65.8335C604.225 62.8034 601.803 60.1008 598.88 57.7186C595.954 55.3376 592.793 53.0883 589.389 50.966C585.987 48.846 582.822 46.5085 579.899 43.9546C576.974 41.4031 574.553 38.5012 572.633 35.2548C570.713 32.0084 569.753 28.0054 569.753 23.2434C569.753 19.7817 570.364 16.6006 571.587 13.6999C572.807 10.8003 574.487 8.35525 576.625 6.36345C578.763 4.3728 581.316 2.8137 584.284 1.68845C587.249 0.564343 590.48 0 593.97 0C597.722 0 600.929 0.347992 603.589 1.04283C606.251 1.73653 608.847 2.08108 611.378 2.08108L612.493 2.08108C612.797 2.08108 613.167 2.03759 613.604 1.95059C613.429 3.33683 613.319 4.67729 613.276 5.97654C613.231 7.27464 613.212 8.79024 613.212 10.521V14.0914C613.212 15.5188 613.254 16.7105 613.343 17.6617H612.556C611.596 12.554 609.501 8.78909 606.274 6.36459C603.046 3.94238 599.03 2.72785 594.231 2.72785C592.137 2.72785 590.128 3.00945 588.21 3.5715C586.289 4.1347 584.587 5.02185 583.104 6.23295C581.619 7.44634 580.441 8.95965 579.569 10.7786C578.696 12.5964 578.261 14.8045 578.261 17.4008C578.261 21.5561 579.221 25.0841 581.14 27.9836C583.059 30.8843 585.461 33.5023 588.341 35.8386C591.22 38.1761 594.363 40.4049 597.767 42.526Z" fill="currentColor"/>
  <path fill-rule="evenodd" clip-rule="evenodd" d="M167.421 2.10347C168.516 2.06325 169.923 2.01156 170.938 1.94826V2.59731C170.767 2.65107 170.587 2.70666 170.402 2.76408C168.794 3.26295 166.741 3.89991 165.567 4.67496C164.258 5.54151 162.992 6.92775 161.771 8.8314C160.548 10.7362 159.26 13.2454 157.91 16.3625C156.555 19.4795 154.964 23.549 153.131 28.5685L127.866 99.2052H127.08L109.326 51.1193L92.1276 99.2052H91.3429L59.2699 12.3365C58.4851 10.26 57.72 8.63566 56.9791 7.46691C56.2371 6.29816 55.4512 5.38926 54.6226 4.74021C53.85 4.13676 52.2286 3.70153 51.2338 3.43451L51.0197 3.37686C50.0618 3.11815 48.9262 2.8583 47.6164 2.59731C46.3943 2.85716 45.3037 3.1399 44.3447 3.44096C43.3834 3.74545 42.5767 4.26515 41.9224 4.99891C41.2681 5.73611 40.766 6.83846 40.4175 8.30942C40.0679 9.78266 39.8936 11.8168 39.8936 14.413L39.8936 73.2901C39.8936 89.2473 31.0133 99.2052 17.6288 99.2052C13.9357 99.2052 11.299 98.494 8.88103 97.8418C6.83345 97.2895 4.9427 96.7795 2.70014 96.7795C1.79883 96.7795 1.15603 96.7795 0.254731 96.9078C0.383984 96.2679 0.383984 94.7362 0.383984 93.5881C0.383984 91.3558 0.275803 89.6257 0.174065 87.9985C0.0837626 86.5543 -0.00146484 85.1912 -0.00146484 83.6303C-0.00146484 80.9505 0.254731 78.5237 1.15603 76.7368H1.92809C1.92809 76.7368 1.79883 78.1402 1.79883 79.4177C1.79883 88.6097 8.49109 96.0137 18.2716 96.0137C25.8651 96.0137 30.2066 90.5248 30.2066 78.7801L30.2066 14.413C30.2066 11.8157 30.0104 9.78266 29.618 8.30942C29.2245 6.83846 28.6567 5.71321 27.9158 4.93481C27.1738 4.15412 26.3002 3.61496 25.2985 3.31046C24.2945 3.0094 23.1808 2.77016 21.9599 2.59616V1.94826C23.4428 2.03526 25.3839 2.09936 27.7854 2.14171C30.1858 2.18636 32.607 2.20811 35.0513 2.20811C37.3201 2.20811 39.6339 2.18636 41.9893 2.14171C44.347 2.09936 46.2223 2.03526 47.6187 1.94826C48.3181 1.94826 49.2344 1.97115 50.3676 2.01351C51.0305 2.03962 52.0455 2.06534 53.045 2.09067C53.7544 2.10864 54.456 2.12642 55.0184 2.144C56.3698 2.1875 57.7223 2.20811 59.076 2.20811L62.807 2.20811C65.2489 2.20811 67.6274 2.18865 69.9413 2.144C72.2528 2.1005 75.071 2.03526 76.555 1.94826V2.59731C74.0231 2.85716 71.3169 3.37571 70.269 4.15526C69.2223 4.93481 68.6984 6.0612 68.6984 7.53101C68.6984 8.3987 68.8484 9.34996 69.1565 10.3882C69.4612 11.4276 69.8316 12.5964 70.269 13.8945L94.6157 80.5063L107.039 44.9184L95.0093 12.3354C94.2245 10.2589 93.4594 8.63451 92.7185 7.46576C91.9764 6.29701 91.1905 5.38811 90.3619 4.73906C89.5322 4.09001 88.6378 3.63556 87.6788 3.37571C87.1094 3.2221 86.1538 3.06808 85.1972 2.91389C84.5427 2.80842 83.8879 2.70286 83.3558 2.59731V1.94826C99.0865 2.17834 119.77 2.29167 135.202 1.94826V2.59731C135.035 2.64959 134.861 2.70361 134.682 2.75935L134.67 2.76292C133.062 3.26188 131.006 3.89957 129.831 4.67496C128.524 5.54151 127.257 6.92775 126.036 8.8314C124.812 10.7362 123.526 13.2454 122.174 16.3625C120.819 19.4795 119.229 23.549 117.395 28.5685L114.416 36.8997L130.355 80.5075L149.075 26.8801C150.558 22.4649 151.758 18.787 152.674 15.8428C153.592 12.9009 154.049 10.5634 154.049 8.8314C154.049 6.92775 153.503 5.51861 152.412 4.61086C151.322 3.70195 148.634 3.0323 146.192 2.59731V1.94826C147.675 2.0364 150.732 2.10165 153.526 2.144C156.317 2.1875 158.936 2.20811 161.381 2.20811C163.649 2.20811 165.307 2.18865 166.355 2.144C166.641 2.13212 167.009 2.1186 167.421 2.10347ZM112.075 30.4962L106.006 13.8945C105.569 12.5964 105.198 11.4276 104.894 10.3882C104.585 9.34996 104.435 8.3987 104.435 7.53101C104.435 6.0612 104.959 4.93481 106.006 4.15526C107.054 3.37571 108.842 2.85716 111.373 2.59731C113.815 3.0323 115.583 3.70195 116.675 4.61086C117.766 5.51861 118.312 6.92775 118.312 8.8314C118.312 10.5634 117.855 12.9009 116.937 15.8428C116.02 18.787 114.821 22.4649 113.338 26.8801L112.075 30.4962Z" fill="currentColor"/>
  <path fill-rule="evenodd" clip-rule="evenodd" d="M559.454 91.5452C557.315 89.2947 555.198 86.6561 553.105 83.625C551.009 80.5949 549.001 77.392 547.082 74.0162C545.162 70.6394 543.396 67.4811 541.78 64.5369C540.164 61.595 538.748 59.0411 537.525 56.8765C536.302 54.713 535.343 53.3702 534.646 52.8505C538.485 51.9874 541.846 50.7088 544.726 49.0203C547.606 47.3319 549.983 45.3847 551.861 43.1766C553.737 40.9696 555.133 38.5668 556.05 35.9695C556.965 33.3733 557.424 30.6901 557.424 27.9199C557.424 24.1984 556.747 20.7357 555.395 17.5316C554.041 14.3299 552.057 11.5814 549.438 9.28628C546.82 6.99342 543.592 5.19623 539.751 3.89812C535.909 2.59888 531.503 1.94983 526.531 1.94983C525.045 1.94983 522.907 1.99447 520.115 2.08032C517.32 2.16732 514.922 2.21082 512.915 2.21082L506.172 2.21082C505.258 2.21082 504.341 2.19022 503.424 2.14557C502.508 2.10322 501.482 2.03797 500.348 1.95097V2.60002C501.57 2.77402 502.594 3.07737 503.424 3.50892C504.253 3.94391 504.907 4.61357 505.389 5.52132C505.866 6.43023 506.195 7.59897 506.372 9.02643C506.545 10.455 506.633 12.2534 506.633 14.4157V84.1446C506.633 86.742 506.523 88.7761 506.305 90.2471C506.086 91.7203 505.715 92.8444 505.194 93.624C504.669 94.4024 503.991 94.9438 503.163 95.2472C502.333 95.5505 501.309 95.7886 500.088 95.9603V96.6094C501.57 96.5224 503.228 96.4572 505.061 96.4148C506.894 96.369 509.031 96.3496 511.476 96.3496C513.744 96.3496 515.861 96.3702 517.825 96.4148C519.789 96.4572 521.469 96.5224 522.864 96.6094V95.9603C521.641 95.7886 520.616 95.5505 519.788 95.2472C518.957 94.9438 518.282 94.4024 517.759 93.624C517.235 92.8444 516.863 91.7203 516.646 90.2471C516.428 88.7761 516.319 86.742 516.319 84.1446V54.1509H524.697C525.394 54.7565 526.092 55.5795 526.791 56.6166C527.488 57.656 528.166 58.7595 528.821 59.9283C529.476 61.097 530.065 62.2223 530.588 63.3052C531.111 64.3881 531.591 65.2752 532.028 65.9655C535.869 73.152 538.987 78.7782 541.388 82.8454C543.787 86.9171 545.99 89.9666 547.998 91.9997C550.005 94.035 552.079 95.3342 554.217 95.8962C556.353 96.4583 559.126 96.7823 562.528 96.8693H564.296C564.69 96.8693 565.19 96.8258 565.802 96.7399V95.9615C563.708 95.2701 561.59 93.7969 559.454 91.5452ZM522.603 51.4208H516.319V6.23333C518.237 5.71364 519.918 5.36908 521.358 5.19508C522.798 5.02223 524.258 4.93523 525.742 4.93523C529.148 4.93523 532.135 5.58428 534.712 6.88239C537.283 8.18049 539.444 9.93419 541.19 12.1412C542.935 14.3493 544.244 16.9455 545.118 19.9321C545.989 22.9186 546.426 26.1444 546.426 29.6049C546.426 32.7219 546.075 35.6009 545.378 38.2406C544.679 40.8826 543.414 43.1743 541.584 45.1226C539.75 47.0709 537.306 48.6082 534.252 49.7324C531.195 50.8576 527.314 51.4208 522.603 51.4208Z" fill="currentColor"/>
  <path fill-rule="evenodd" clip-rule="evenodd" d="M710.758 30.4508C708.313 24.5235 704.974 19.3941 700.742 15.0636C696.508 10.7355 691.556 7.35972 685.884 4.93522C680.209 2.51302 674.188 1.29962 667.819 1.29962C660.4 1.29962 653.724 2.68472 647.789 5.45492C641.854 8.22741 636.837 11.9054 632.736 16.4934C628.632 21.0814 625.47 26.2967 623.244 32.1404C621.019 37.983 619.906 43.979 619.906 50.1238C619.906 56.2686 620.975 61.9407 623.116 67.6539C625.252 73.3672 628.351 78.4314 632.409 82.8454C636.467 87.2617 641.398 90.832 647.202 93.5587C653.004 96.2843 659.529 97.6488 666.773 97.6488C673.581 97.6488 679.883 96.3931 685.689 93.8827C691.493 91.3724 696.532 87.9542 700.808 83.6249C705.085 79.2968 708.421 74.2315 710.821 68.4323C713.222 62.6344 714.421 56.4014 714.421 49.7346C714.421 43.0678 713.2 36.3816 710.758 30.4508ZM699.565 70.1196C697.686 75.66 695.155 80.248 691.973 83.8848C688.786 87.5193 685.032 90.2265 680.713 91.9985C676.392 93.7751 671.746 94.6611 666.773 94.6611C661.8 94.6611 657.478 93.798 653.289 92.0638C649.101 90.3341 645.436 87.6291 642.294 83.9478C639.152 80.2698 636.665 75.5948 634.832 69.9239C632.999 64.2541 632.084 57.5232 632.084 49.7323C632.084 41.9414 633.066 34.6496 635.028 28.8917C636.993 23.135 639.611 18.4188 642.883 14.7385C646.156 11.0606 649.864 8.37623 654.011 6.68892C658.155 5.00047 662.41 4.15682 666.774 4.15682C671.139 4.15682 675.566 5.02337 679.799 6.75303C684.032 8.48612 687.827 11.2334 691.188 14.9995C694.546 18.7656 697.252 23.57 699.303 29.4126C701.354 35.2552 702.381 42.2894 702.381 50.513C702.381 58.0441 701.44 64.5815 699.565 70.1196Z" fill="currentColor"/>
  <path d="M799.137 2.20815C801.404 2.20815 803.433 2.18754 805.224 2.1429L805.225 2.13946C807.014 2.09711 808.605 2.03186 810.002 1.94486V2.59391C808.518 3.11361 807.276 3.59096 806.273 4.02251C805.268 4.4575 804.439 5.34351 803.785 6.68511C803.132 8.02786 802.607 10.0185 802.213 12.6582C801.822 15.3002 801.537 19.0205 801.363 23.8249C801.186 28.6304 801.078 34.7122 801.035 42.0693C800.991 49.4275 800.97 58.5176 800.97 69.3374V99.2029H800.316L725.96 17.1386V28.825C725.96 39.6471 725.982 48.7567 726.026 56.1595C726.069 63.5601 726.176 69.6625 726.351 74.468C726.527 79.2724 726.789 82.995 727.137 85.6347C727.486 88.2755 728.011 90.2891 728.708 91.6719C729.406 93.0581 730.258 93.9899 731.261 94.465C732.264 94.9412 733.508 95.438 734.992 95.9577V96.6067C733.506 96.5197 731.893 96.4545 730.147 96.4121C728.401 96.3675 726.308 96.3469 723.866 96.3469C721.593 96.3469 719.653 96.3663 718.039 96.4121C716.423 96.4545 714.918 96.5197 713.523 96.6067V95.9577C714.918 95.438 716.096 94.9183 717.057 94.3997C718.017 93.8789 718.826 92.9276 719.479 91.5425C720.135 90.1586 720.612 88.1462 720.919 85.5042C721.225 82.8645 721.464 79.1419 721.641 74.3375C721.814 69.5332 721.925 63.4296 721.968 56.029C722.01 48.6273 722.033 39.5177 722.033 28.6968V0L722.948 0L797.042 81.6763V70.1204C797.042 59.2125 797.021 50.0159 796.977 42.5272C796.932 35.0407 796.825 28.8719 796.651 24.0229C796.474 19.1762 796.194 15.4318 795.799 12.791C795.407 10.1513 794.883 8.16179 794.228 6.8179C793.573 5.4763 792.725 4.56854 791.676 4.0912C790.629 3.61614 789.407 3.11705 788.01 2.59735V1.9483C789.493 2.0353 791.107 2.10054 792.853 2.1429C794.598 2.18754 796.692 2.20815 799.137 2.20815Z" fill="currentColor"/>
  <path fill-rule="evenodd" clip-rule="evenodd" d="M381.177 2.07765C378.015 2.07765 375.058 2.10692 371.946 2.13774C368.486 2.17199 364.834 2.20815 360.493 2.20815C356.958 2.20815 350.938 2.07765 348.057 1.9483C345.308 2.0788 341.642 2.20815 337.192 2.20815C332.348 2.20815 328.945 2.07765 326.066 1.9483V2.59849L326.511 2.74484C334.719 5.43864 335.097 5.56296 335.097 70.1193V81.6763L261.005 0L260.088 0V28.6968C260.088 92.8023 259.96 92.8499 251.893 95.8415L251.58 95.9577C246.636 95.3137 246.347 94.4118 243.772 86.3668L243.725 86.2196L216.235 0L214.925 0L185.34 78.0395C179.711 92.8418 177.616 94.4009 170.94 95.9588V96.6079C171.385 96.5868 171.802 96.5657 172.208 96.5452C174.311 96.4389 176.111 96.348 179.841 96.348C184.685 96.348 189.136 96.4785 192.016 96.6079V95.9588C187.565 95.4403 185.995 93.2321 185.995 90.2456C185.995 87.7787 187.042 84.6617 188.22 81.4153L196.074 60.3801C200.656 60.2496 205.237 60.2496 209.949 60.2496H225.005L232.728 84.6605C232.817 84.952 232.905 85.2402 232.992 85.5247L232.994 85.53C233.682 87.7788 234.3 89.7997 234.3 91.4132C234.3 93.8812 232.86 95.699 228.539 95.9588V96.6079C231.419 96.4774 235.347 96.348 240.19 96.348C244.642 96.348 248.831 96.4785 251.579 96.6079C254.327 96.4774 257.47 96.3469 261.92 96.3469C266.763 96.3469 270.167 96.4774 273.046 96.6067V95.9577L272.716 95.8471C264.142 92.9804 264.014 92.9378 264.014 28.8261V17.1398L338.368 99.2041H339.023V69.3386C339.023 5.519 339.277 5.43713 347.616 2.74014L348.056 2.59735L348.461 2.67177C353.853 3.66036 357.219 4.27742 357.219 14.4131V84.142C357.219 94.5148 354.673 94.9103 348.199 95.9163L347.926 95.9588V96.6079C350.805 96.4774 357.219 96.348 362.063 96.348C366.13 96.348 371.287 96.4527 376.258 96.5537C380.886 96.6476 385.355 96.7384 388.637 96.7384C423.328 96.7384 439.166 75.314 439.166 49.993C439.166 19.7383 417.044 2.07765 381.177 2.07765ZM209.951 56.4846C205.763 56.4846 201.705 56.4846 197.515 56.3541L211.784 18.0487L223.827 56.4846H209.951ZM388.508 93.6213C382.225 93.6213 373.454 92.9711 366.908 91.8035V6.62215C371.882 5.45455 376.988 5.19355 381.963 5.19355C407.882 5.19355 428.174 17.5301 428.174 49.2123C428.174 83.7528 410.763 93.6213 388.508 93.6213Z" fill="currentColor"/>
  <path d="M456.478 91.673C457.918 92.1927 465.361 92.4525 471.514 92.4525C491.935 92.4525 494.683 92.4525 496.646 79.5974H497.302C497.229 85.7189 496.99 88.5684 496.795 90.9005C496.642 92.7236 496.516 94.2305 496.516 96.7372C484.342 96.348 477.815 96.348 465.641 96.348C455.693 96.348 442.078 96.4785 439.329 96.6078V95.9588C445.614 94.9194 446.791 92.9722 446.791 84.1419V14.413C446.791 4.02591 444.696 3.50621 438.936 2.59731V1.94826C441.555 2.07761 446.268 2.20811 455.693 2.20811L475.283 2.20811C480.912 2.20811 485.211 2.12225 488.178 1.94826C488.178 2.3821 488.198 3.1399 488.243 4.22051C488.286 5.30341 488.308 6.36226 488.308 7.40166C488.308 8.87376 488.262 10.6698 488.177 12.7898C488.089 14.911 487.871 16.6647 487.522 18.0486H486.868C486.868 15.1926 486.561 12.9638 485.952 11.3612C485.34 9.76091 484.185 8.57041 482.483 7.79086C480.78 7.01131 478.402 6.5374 475.348 6.36226L474.929 6.33855C472.442 6.19774 471.048 6.11881 467.473 6.1047L467.466 6.10241C460.142 6.10356 458.441 6.36341 456.478 6.88196V45.5732C476.807 45.516 478.077 44.7616 479.929 35.5787H480.583C480.561 36.2693 480.538 36.9217 480.517 37.5556C480.411 40.6157 480.321 43.2438 480.321 47.6543C480.321 53.0435 480.401 55.4065 480.499 58.2982C480.526 59.0993 480.555 59.9409 480.583 60.8986H479.929C478.077 50.3695 476.807 49.5373 456.478 49.4767V91.673Z" fill="currentColor"/>
</svg>
