<svg viewBox="17 34 127 113" xmlns="http://www.w3.org/2000/svg"><linearGradient id="a" gradientUnits="userSpaceOnUse" x1="28.286" x2="70.714" y1="53.757" y2="127.243"><stop offset="0" stop-color="#1784d9"/><stop offset=".5" stop-color="#107ad5"/><stop offset="1" stop-color="#0a63c9"/></linearGradient><path d="m143.984 93.02a1.813 1.813 0 0 1 -.07.52 1.055 1.055 0 0 1 -.06.24c.01.01 0 .02-.01.03a.9.9 0 0 1 -.079.21 2.1 2.1 0 0 1 -.15.3 2.5 2.5 0 0 1 -1.059 1.05l-4.636 2.62-.4.23-4.936 2.78-1.139.64-21.5 12.16-.419.24-8.193 4.63-1.019.57-1.009.57-.51.29c-.17.09-.349.19-.529.29-.02.01-.03.02-.05.03a4.689 4.689 0 0 1 -1.169.43h-.01a5.834 5.834 0 0 1 -1.509.19 5.973 5.973 0 0 1 -2.7-.62c-.14-.08-.28-.16-.42-.23-.05-.03-.1-.06-.16-.09l-6.414-3.63-.869-.49-.62-.35-.13-.07-.469-.27-.07-.04-.21-.12-.15-.09-.16-.09-.2-.11-.239-.13-.12-.07-.03-.02-.32-.18-.28-.16-.08-.04-.359-.2-18.112-10.24-3.816-2.16-1.14-.64-4.936-2.78-.524-.3-4.506-2.55a2.546 2.546 0 0 1 -1.059-1.05 2.233 2.233 0 0 1 -.15-.31l-.21-.99a2.645 2.645 0 0 1 1.329-2.3l.03-.03c.02 0 .04-.02.06-.02l4.506-2.54.529-.3 21.316-12.05 1.379-.78 5.306-2.99.359-.21.08-.04.28-.16.32-.18.03-.02.12-.07.239-.13.2-.11.16-.09.15-.08.21-.12.07-.04.469-.27.13-.07.62-.35.869-.5 6.414-3.62c.2-.11.39-.22.58-.32a6.069 6.069 0 0 1 5.385 0c.2.1.389.21.579.32l10.731 6.06 6.674 3.77 21.321 12.05.4.23 4.636 2.61c.03 0 .05.02.07.02l.02.03a2.633 2.633 0 0 1 1.338 2.3z" fill="#123b6d"/><path d="m110 49h-28v26l28 26h28v-26z" fill="#28a8ea"/><path d="m110 101v26h-28l-.5-.42-.07-.06v-.01l-.09-.08-.18-.15-.34-.29-.03-.02-.44-.38-.01-.01-.11-.09-.05-.04-.05-.05-.59-.5h-.01l-.12-.11-.08-.07-.05-.04-.12-.1-.3-.25-.6-.49-24.26-19.85-1-.82v-28.17h29l.6.56.15.14.44.41.31.28.28.26.47.44.13.12.62.58z" fill="#0364b8"/><path d="m54 101h28v26h-28z" fill="#14447d"/><path d="m110 101h28v26h-28z" fill="#0078d4"/><path d="m110 49h28v26h-28z" fill="#50d9ff"/><path d="m53 49h29v26h-29z" fill="#0078d4"/><path d="m82 75h28v26h-28z" fill="#0078d4"/><path d="m58.38 34h74.24a5.38 5.38 0 0 1 5.38 5.38v9.62a0 0 0 0 1 0 0h-85a0 0 0 0 1 0 0v-9.62a5.38 5.38 0 0 1 5.38-5.38z" fill="#0358a7"/><g fill="#0a2767"><path d="m138 93.829-41.058 22.279-.192.111a1.94 1.94 0 0 1 -.2.107c-.074.035-.151.066-.227.093l-1.34-.751-.167-.089c-.08-.04-.161-.082-.237-.13l-.1-.062-8.132-4.52-.664-.375-.545-.3-1.2-.675-30.938-17.199v32.259h85z" opacity=".1"/><path d="m138 94.829-41.058 22.279-.192.111a1.94 1.94 0 0 1 -.2.107c-.074.035-.151.066-.227.093l-1.34-.751-.167-.089c-.08-.04-.161-.082-.237-.13l-.1-.062-8.132-4.52-.664-.375-.545-.3-1.2-.675-30.938-17.199v32.259h85z" opacity=".1"/><path d="m138 95.829-41.058 22.279-.192.111a1.94 1.94 0 0 1 -.2.107c-.074.035-.151.066-.227.093l-1.34-.751-.167-.089c-.08-.04-.161-.082-.237-.13l-.1-.062-8.132-4.52-.664-.375-.545-.3-1.2-.675-30.938-17.199v32.259h85z" opacity=".1"/><path d="m138 96.829-41.058 22.279-.192.111a1.94 1.94 0 0 1 -.2.107c-.074.035-.151.066-.227.093l-1.34-.751-.167-.089c-.08-.04-.161-.082-.237-.13l-.1-.062-8.132-4.52-.664-.375-.545-.3-1.2-.675-30.938-17.199v32.259h85z" opacity=".1"/></g><path d="m142.641 95.242-.054.029-.013.008-43.8 23.765a6.019 6.019 0 0 1 -.587.319 6.331 6.331 0 0 1 -5.389 0 6.138 6.138 0 0 1 -.587-.319l2.061 14.818 43.658 13.047a6.235 6.235 0 0 0 3.564-1.1 5.686 5.686 0 0 0 2.5-4.671v-48.116a2.542 2.542 0 0 1 -1.353 2.22z" fill="#1490df"/><path d="m100.479 118.163-1.629.883a6.261 6.261 0 0 1 -.587.319 6.329 6.329 0 0 1 -5.388 0 6.261 6.261 0 0 1 -.587-.319l2.061 14.818 43.658 13.047a6.241 6.241 0 0 0 3.565-1.1 5.773 5.773 0 0 0 2.339-3.356z" opacity=".05"/><path d="m143.578 143.412-44.139-24.685-.589.319a6.261 6.261 0 0 1 -.587.319 6.329 6.329 0 0 1 -5.388 0 6.261 6.261 0 0 1 -.587-.319l2.061 14.818 43.658 13.047a6.241 6.241 0 0 0 3.565-1.1 5.851 5.851 0 0 0 2.006-2.399z" opacity=".05"/><path d="m143.088 144.284-44.682-24.984-.143.07a6.329 6.329 0 0 1 -5.388 0 6.261 6.261 0 0 1 -.587-.319l2.061 14.818 43.658 13.047a6.241 6.241 0 0 0 3.565-1.1 5.943 5.943 0 0 0 1.516-1.532z" opacity=".05"/><path d="m142.444 145.069-44.866-25.092-.223-.119-.176-.1a6.334 6.334 0 0 1 -4.305-.394 6.261 6.261 0 0 1 -.587-.319l2.061 14.818 43.658 13.047a6.241 6.241 0 0 0 3.565-1.1 6.015 6.015 0 0 0 .873-.741z" opacity=".05"/><path d="m141.63 145.76c-.13.09-.26.18-.39.26s-.27.15-.41.22c-.16.08-.32.15-.48.22-.01 0-.02.01-.03.01q-.27.1-.54.18a3.3 3.3 0 0 1 -.62.15.7.7 0 0 1 -.14.03c-.11.02-.22.03-.34.04a4.632 4.632 0 0 1 -.65.04h-84.88a6.01 6.01 0 0 1 -6.08-5.94v-47.95l1.38.77.02.01c.01.01.01.01.02.01l4.51 2.51 8.42 4.68 20.58 11.44.6.34.15.08.44.25.31.17.28.15.47.27.13.07.62.34 7.44 4.14c.19.12.39.23.59.33l2.48 1.39 1.57.88h.01l6.67 3.73 1.79 1 1.79 1 .75.42 1.04.58z" fill="#28a8ea"/><path d="m85 63v59.62a5.337 5.337 0 0 1 -.37 1.96 5.272 5.272 0 0 1 -.52 1 4.839 4.839 0 0 1 -.86 1 5.173 5.173 0 0 1 -.51.42 5.462 5.462 0 0 1 -1.03.58 5.378 5.378 0 0 1 -2.09.42h-32.62v-4h.07v-30.98a2.644 2.644 0 0 1 1.33-2.3l.03-.03c.02 0 .04-.02.06-.02l4.51-2.54v-31.13h26.62a4.547 4.547 0 0 1 2.38.69 6.374 6.374 0 0 1 3 5.31z" opacity=".05"/><path d="m84.25 63.1v58.52a5.432 5.432 0 0 1 -.86 2.96 4.746 4.746 0 0 1 -.84 1 3.379 3.379 0 0 1 -.55.45 3.747 3.747 0 0 1 -.66.4c-.1.06-.2.1-.3.15a5.292 5.292 0 0 1 -2.08.42h-31.96v-3h.07v-30.98a2.644 2.644 0 0 1 1.33-2.3l.03-.03c.02 0 .04-.02.06-.02l4.51-2.54v-30.88h25.87a4.942 4.942 0 0 1 3.13 1.17 6.149 6.149 0 0 1 2.25 4.68z" opacity=".075"/><path d="m83.5 63.19v57.43a5.45 5.45 0 0 1 -1.5 3.82 1.92 1.92 0 0 1 -.15.14 4.911 4.911 0 0 1 -1.47 1c-.01 0-.02.01-.03.01a5.268 5.268 0 0 1 -2.04.41h-31.31v-2h.07v-30.98a2.644 2.644 0 0 1 1.33-2.3l.03-.03c.02 0 .04-.02.06-.02l4.51-2.54v-30.63h25.12a5.21 5.21 0 0 1 3.88 1.82 5.846 5.846 0 0 1 1.5 3.87z" opacity=".1"/><path d="m82.75 63.28v56.34a5.735 5.735 0 0 1 -.75 2.87 4.989 4.989 0 0 1 -2.29 2.09c-.12.05-.25.1-.38.14a5.088 5.088 0 0 1 -1.67.28h-30.66v-1h.07v-30.98a2.644 2.644 0 0 1 1.33-2.3l.03-.03c.02 0 .04-.02.06-.02l4.51-2.54v-30.38h24.37a5.373 5.373 0 0 1 4.63 2.76 5.5 5.5 0 0 1 .75 2.77z" opacity=".125"/><path d="m82 63.38v55.24a5.158 5.158 0 0 1 -3.74 5.22 4.731 4.731 0 0 1 -1.26.16h-29.93v-30.98a2.644 2.644 0 0 1 1.33-2.3l.03-.03c.02 0 .04-.02.06-.02l4.51-2.54v-30.13h23.62a5.382 5.382 0 0 1 5.38 5.38z" opacity=".2"/><rect fill="url(#a)" height="65" rx="5.38" width="65" x="17" y="58"/><path d="m35.041 81.643a14.637 14.637 0 0 1 5.744-6.343 17.366 17.366 0 0 1 9.128-2.287 16.154 16.154 0 0 1 8.444 2.169 14.489 14.489 0 0 1 5.59 6.062 19.581 19.581 0 0 1 1.958 8.916 20.653 20.653 0 0 1 -2.017 9.329 14.837 14.837 0 0 1 -5.755 6.274 16.788 16.788 0 0 1 -8.763 2.228 16.542 16.542 0 0 1 -8.632-2.193 14.705 14.705 0 0 1 -5.661-6.074 19.091 19.091 0 0 1 -1.977-8.811 21.187 21.187 0 0 1 1.941-9.27zm6.121 14.895a9.5 9.5 0 0 0 3.231 4.175 8.44 8.44 0 0 0 5.048 1.521 8.862 8.862 0 0 0 5.39-1.568 9.107 9.107 0 0 0 3.137-4.187 16.181 16.181 0 0 0 1-5.826 17.723 17.723 0 0 0 -.943-5.9 9.345 9.345 0 0 0 -3.025-4.336 8.35 8.35 0 0 0 -5.343-1.651 8.718 8.718 0 0 0 -5.169 1.534 9.576 9.576 0 0 0 -3.3 4.21 16.71 16.71 0 0 0 -.024 12.029z" fill="#fff"/><path d="m0 0h180v180h-180z" fill="none"/></svg>