<svg xmlns="http://www.w3.org/2000/svg" width="32" height="32" viewBox="0 0 32 32" fill="none"><path fill="#fff" d="M0 0h32v32H0z"/><g opacity=".5"><mask id="a" fill="#fff"><path d="M5.847 23.835c1.02 0 1.847.809 1.847 1.807s-.827 1.806-1.847 1.806S4 26.64 4 25.642c0-.998.827-1.807 1.847-1.807M16.397 4c6.162 0 11.158 4.44 11.158 9.918s-4.996 9.917-11.157 9.917c-2.133 0-4.126-.532-5.82-1.454a3.01 3.01 0 0 1-2.345 1.111c-1.653 0-2.993-1.31-2.993-2.928 0-.928.443-1.754 1.132-2.29a9 9 0 0 1-1.133-4.356C5.24 8.441 10.235 4 16.398 4"/></mask><path fill="#000" fill-opacity=".2" d="M5.847 23.835c1.02 0 1.847.809 1.847 1.807s-.827 1.806-1.847 1.806S4 26.64 4 25.642c0-.998.827-1.807 1.847-1.807M16.397 4c6.162 0 11.158 4.44 11.158 9.918s-4.996 9.917-11.157 9.917c-2.133 0-4.126-.532-5.82-1.454a3.01 3.01 0 0 1-2.345 1.111c-1.653 0-2.993-1.31-2.993-2.928 0-.928.443-1.754 1.132-2.29a9 9 0 0 1-1.133-4.356C5.24 8.441 10.235 4 16.398 4"/><path fill="#000" fill-opacity=".1" d="M5.847 23.835v-.25zm1.847 1.807h.25zm-1.847 1.806v.25zM4 25.642h-.25zM16.398 4v-.25zm11.157 9.918h.25zm-11.157 9.917v.25zm-5.82-1.454.12-.22-.183-.1-.131.162zm-2.345 1.111v.25zM5.24 20.564h-.25zm1.132-2.29.154.197.168-.131-.103-.187zM5.24 13.917h-.25zm.608 9.917v.25c.887 0 1.597.702 1.597 1.557h.5c0-1.141-.944-2.057-2.097-2.057zm1.847 1.807h-.25c0 .854-.71 1.556-1.597 1.556v.5c1.153 0 2.097-.915 2.097-2.056zm-1.847 1.806v-.25c-.887 0-1.597-.702-1.597-1.556h-.5c0 1.14.944 2.056 2.097 2.056zM4 25.642h.25c0-.855.71-1.557 1.597-1.557v-.5c-1.153 0-2.097.916-2.097 2.057zM16.398 4v.25c6.052 0 10.907 4.356 10.907 9.668h.5c0-5.642-5.136-10.168-11.407-10.168zm11.157 9.918h-.25c0 5.312-4.855 9.667-10.907 9.667v.5c6.27 0 11.407-4.525 11.407-10.167zm-11.157 9.917v-.25c-2.091 0-4.043-.521-5.7-1.424l-.12.22-.12.22a12.4 12.4 0 0 0 5.94 1.484zm-5.82-1.454-.194-.158a2.76 2.76 0 0 1-2.15 1.02v.5a3.26 3.26 0 0 0 2.538-1.205zm-2.345 1.111v-.25c-1.52 0-2.743-1.204-2.743-2.678h-.5c0 1.76 1.457 3.178 3.243 3.178zM5.24 20.564h.25c0-.846.403-1.601 1.036-2.093l-.154-.198-.153-.197a3.15 3.15 0 0 0-1.229 2.488zm1.132-2.29.219-.121a8.74 8.74 0 0 1-1.102-4.235h-.5c0 1.607.42 3.126 1.164 4.476zM5.24 13.917h.25c0-5.312 4.856-9.668 10.909-9.668v-.5c-6.272 0-11.409 4.526-11.409 10.168z" mask="url(#a)"/></g></svg>
